<svg width="11" height="10" viewBox="0 0 11 10" fill="none" xmlns="http://www.w3.org/2000/svg">
<path d="M4.78671 1.00431C5.01122 0.313323 5.98878 0.313323 6.21329 1.00431L6.72158 2.56864C6.88892 3.08367 7.36886 3.43237 7.9104 3.43237H9.55524C10.2818 3.43237 10.5839 4.36208 9.99608 4.78914L8.66537 5.75595C8.22726 6.07425 8.04394 6.63846 8.21128 7.15349L8.71957 8.71783C8.94408 9.40881 8.15322 9.98341 7.56544 9.55636L6.23473 8.58954C5.79662 8.27124 5.20338 8.27124 4.76527 8.58954L3.43456 9.55636C2.84678 9.98341 2.05592 9.40881 2.28043 8.71783L2.78872 7.15349C2.95606 6.63846 2.77274 6.07425 2.33463 5.75595L1.00392 4.78914C0.416136 4.36208 0.718218 3.43237 1.44476 3.43237H3.0896C3.63113 3.43237 4.11108 3.08367 4.27842 2.56864L4.78671 1.00431Z" fill="#D9D9D9" stroke="#90949C" stroke-width="0.5"/>
</svg>
